<?xml version="1.0" standalone="no"?><!DOCTYPE svg PUBLIC "-//W3C//DTD SVG 1.1//EN" "http://www.w3.org/Graphics/SVG/1.1/DTD/svg11.dtd"><svg t="1736598970443" class="icon" viewBox="0 0 1025 1024" version="1.1" xmlns="http://www.w3.org/2000/svg" p-id="17890" xmlns:xlink="http://www.w3.org/1999/xlink" width="200.1953125" height="200"><path d="M160.881082 256.886974h703.18694c106.543476 0 159.815214 53.271738 159.815214 159.815214v447.482598c0 106.543476-53.271738 159.815214-159.815214 159.815214h-703.18694c-106.543476 0-159.815214-53.271738-159.815214-159.815214v-447.482598c0-106.543476 53.271738-159.815214 159.815214-159.815214z" fill="#C2E2FF" p-id="17891"></path><path d="M1.065868 1.182633h910.946718a98.829728 98.829728 0 0 1 111.87065 111.870649 102.06865 102.06865 0 0 1 0.596643 22.842921 98.105232 98.105232 0 0 1-20.967756 52.504625 101.344154 101.344154 0 0 1-20.754669 19.604 101.642476 101.642476 0 0 1-25.4852 12.827834 99.426372 99.426372 0 0 1-45.259668 4.09127H112.936518A98.531406 98.531406 0 0 1 37.546354 204.552819 98.616641 98.616641 0 0 1 0.043051 124.432125a98.872346 98.872346 0 0 1 0.9802-11.378843A98.829728 98.829728 0 0 1 112.936518 1.182633H1.065868z" fill="#116DFF" p-id="17892"></path><path d="M112.936518 33.145675a79.864989 79.864989 0 1 0 0 159.815214h799.076068a79.864989 79.864989 0 1 0 0-159.815214H112.936518z m0-31.963042h799.076068A111.742797 111.742797 0 0 1 1023.286592 102.015378a112.126354 112.126354 0 0 1-40.358669 97.465972 112.083737 112.083737 0 0 1-70.957954 25.399964H112.936518A111.785415 111.785415 0 0 1 1.065868 113.053282 111.785415 111.785415 0 0 1 112.936518 1.182633z" fill="#192C55" p-id="17893"></path><path d="M110.592561 113.053282a47.006982 47.006982 0 0 0 1.9604 13.211391 42.915712 42.915712 0 0 0 5.753348 12.103339 46.239868 46.239868 0 0 0 12.57213 12.657365 44.236851 44.236851 0 0 0 12.145956 5.753348 44.236851 44.236851 0 0 0 17.728835 1.704695 45.771077 45.771077 0 0 0 40.997929-49.904964 45.643225 45.643225 0 0 0-10.142939-24.504999 51.694894 51.694894 0 0 0-6.392608-6.349991 51.567042 51.567042 0 0 0-7.415426-4.986235 43.384503 43.384503 0 0 0-12.614748-4.517443A45.771077 45.771077 0 0 0 110.592561 113.0959zM248.417201 113.053282a47.177451 47.177451 0 0 0 1.9604 13.211391 43.043564 43.043564 0 0 0 5.753348 12.103339 46.239868 46.239868 0 0 0 12.57213 12.657365 44.364703 44.364703 0 0 0 12.145957 5.753348 44.236851 44.236851 0 0 0 17.728834 1.704695 43.299269 43.299269 0 0 0 12.998304-3.238921 41.80766 41.80766 0 0 0 7.926835-4.219122 51.055634 51.055634 0 0 0 6.904017-5.668113 51.43919 51.43919 0 0 0 5.668113-6.946635 42.745242 42.745242 0 0 0 6.818782-16.450312 38.994912 38.994912 0 0 0 0.852348-8.949652 47.433155 47.433155 0 0 0-1.917783-13.211391 42.78786 42.78786 0 0 0-5.753347-12.103339 46.325103 46.325103 0 0 0-12.57213-12.657365 44.236851 44.236851 0 0 0-12.145957-5.71073 44.151616 44.151616 0 0 0-17.728834-1.747313 45.771077 45.771077 0 0 0-41.211017 45.472755zM389.139824 113.053282a44.407321 44.407321 0 0 0 10.441261 28.766739 46.026782 46.026782 0 0 0 21.308695 14.36206 47.603625 47.603625 0 0 0 15.427495 2.088252 44.833495 44.833495 0 0 0 24.291913-8.097304 46.452955 46.452955 0 0 0 13.850652-15.34226 42.319069 42.319069 0 0 0 5.071469-14.703 46.879129 46.879129 0 0 0 0.511409-10.398643 52.462007 52.462007 0 0 0-1.917783-10.228174 41.083164 41.083164 0 0 0-6.989252-13.850652 47.731477 47.731477 0 0 0-15.768434-13.296626 43.256651 43.256651 0 0 0-9.716765-3.665095 46.921747 46.921747 0 0 0-15.51273-1.108052 43.725442 43.725442 0 0 0-14.958704 4.176504 46.53819 46.53819 0 0 0-12.699983 8.949652 45.898929 45.898929 0 0 0-13.296625 32.346599z" fill="#FFFFFF" p-id="17894"></path><path d="M809.304675 743.790659a20.882521 20.882521 0 0 1-11.932869-4.261739 20.030173 20.030173 0 0 1-7.074487-10.441261l-29.491234-103.134084-34.562703 103.943814a20.712052 20.712052 0 0 1-31.792574 9.759383 19.944939 19.944939 0 0 1-7.159721-10.483878l-47.347921-166.207822a20.030173 20.030173 0 0 1 4.048652-18.751652 18.666417 18.666417 0 0 1 6.222139-4.901 20.285878 20.285878 0 0 1 28.766739 12.57213l29.491234 103.091467 34.520086-103.901197a20.030173 20.030173 0 0 1 19.689234-13.935887 20.882521 20.882521 0 0 1 11.93287 4.219122 20.456347 20.456347 0 0 1 7.244956 10.483878l29.405999 103.091467 34.605321-103.85858a20.200643 20.200643 0 1 1 38.355652 12.785217l-55.402608 166.207822a20.371113 20.371113 0 0 1-12.955687 12.955687 20.030173 20.030173 0 0 1-6.222139 0.9802l-0.340939-0.213087z m-266.486541 0a20.285878 20.285878 0 0 1-19.177826-14.660383l-29.192912-103.134084-34.733173 103.901197a20.158026 20.158026 0 0 1-7.628513 10.100322 20.541582 20.541582 0 0 1-18.325478 2.684896 19.604 19.604 0 0 1-10.015087-7.713748 20.030173 20.030173 0 0 1-2.684895-5.795965l-47.475773-166.207822a20.115408 20.115408 0 0 1 10.526495-22.842922 19.348295 19.348295 0 0 1 15.086556-1.321139 22.459365 22.459365 0 0 1 6.776165 3.622479 20.541582 20.541582 0 0 1 6.520461 9.46106l29.491234 103.091467 34.605321-103.901197a20.669434 20.669434 0 0 1 7.543278-10.228174 20.030173 20.030173 0 0 1 12.103339-3.707713 19.859704 19.859704 0 0 1 16.407695 8.864417c1.193287 1.78993 2.13087 3.75033 2.727513 5.838583l29.320765 103.091467 34.690556-103.85858a20.669434 20.669434 0 0 1 6.776165-9.588913 21.905339 21.905339 0 0 1 7.074486-3.494626 23.18386 23.18386 0 0 1 7.8416-0.596644 19.817086 19.817086 0 0 1 15.470113 11.080522 19.518765 19.518765 0 0 1 2.088252 7.585895 19.646617 19.646617 0 0 1-0.894965 7.798983l-55.402608 166.207822a20.158026 20.158026 0 0 1-12.955686 12.913069 21.095608 21.095608 0 0 1-6.222139 1.022818l-0.340939-0.213087z m-283.746585 0a20.371113 20.371113 0 0 1-19.177826-14.660383l-29.320764-103.134084-34.690556 103.85858a20.626817 20.626817 0 0 1-25.996608 12.785217 19.859704 19.859704 0 0 1-10.100321-7.67113 20.030173 20.030173 0 0 1-2.727513-5.838583l-47.390538-166.207822a20.115408 20.115408 0 0 1 10.483878-22.842921 19.049973 19.049973 0 0 1 15.086556-1.321139 22.715069 22.715069 0 0 1 6.818782 3.622478 20.712052 20.712052 0 0 1 6.520461 9.461061l29.491234 103.091467 34.605321-103.901198a20.882521 20.882521 0 0 1 13.381861-13.040921 21.010373 21.010373 0 0 1 12.699982 0.255704 20.882521 20.882521 0 0 1 9.972469 7.756365c1.235904 1.78993 2.13087 3.707713 2.727513 5.795965l29.661704 103.134085 34.605321-103.85858a20.541582 20.541582 0 0 1 9.887234-12.955687 21.180843 21.180843 0 0 1 7.969452-2.471809 20.158026 20.158026 0 0 1 15.470113 5.156705 20.030173 20.030173 0 0 1 6.264756 19.049973 19.604 19.604 0 0 1-1.278521 4.006035l-55.402608 166.207822a20.115408 20.115408 0 0 1-7.330191 10.015087 20.839904 20.839904 0 0 1-11.805017 3.9208l-0.426174-0.213087z m636.490724-30.258347a19.177826 19.177826 0 0 1 2.13087-8.949652 19.348295 19.348295 0 0 1 5.838582-7.03187 21.820104 21.820104 0 0 1 12.998304-4.133887 20.882521 20.882521 0 0 1 12.657365 5.028852 20.158026 20.158026 0 0 1-10.782199 35.244582 21.180843 21.180843 0 0 1-9.162739-0.894965 20.158026 20.158026 0 0 1-13.680183-19.220443z" fill="#28BF9A" p-id="17895"></path></svg>